HIERARCHY
ROOT SpineBase
{
  OFFSET 0.000000 0.000000 0.000000
  CHANNELS 6 Xposition Yposition Zposition Zrotation Xrotation Yrotation
  JOINT SpineMid
  {
    OFFSET 0.000000 28.679470 0.000000
    CHANNELS 3 Zrotation Xrotation Yrotation
    JOINT SpineShoulder
    {
      OFFSET 0.009919 21.322495 -0.778744
      CHANNELS 3 Zrotation Xrotation Yrotation
      JOINT Neck
      {
        OFFSET 0.024145 7.067841 -0.579611
        CHANNELS 3 Zrotation Xrotation Yrotation
        JOINT Head
        {
          OFFSET 1.351416 14.554124 -2.091008
          CHANNELS 3 Zrotation Xrotation Yrotation
          End Site
          {
            OFFSET 0 0 0
          }
        }
      }
      JOINT ShoulderLeft
      {
        OFFSET -14.460263 -1.242789 -7.661567
        CHANNELS 3 Zrotation Xrotation Yrotation
        JOINT ElbowLeft
        {
          OFFSET -4.756651 -24.098786 -3.296272
          CHANNELS 3 Zrotation Xrotation Yrotation
          JOINT WristLeft
          {
            OFFSET 3.208981 -20.812661 -6.152879
            CHANNELS 3 Zrotation Xrotation Yrotation
            JOINT HandLeft
            {
              OFFSET 1.554752 -6.384656 -1.030559
              CHANNELS 3 Zrotation Xrotation Yrotation
              JOINT HandTipLeft
              {
                OFFSET 0.871228 -6.075863 -0.580834
                CHANNELS 3 Zrotation Xrotation Yrotation
                End Site
                {
                  OFFSET 0 0 0
                }
              }
              JOINT ThumbLeft
              {
                OFFSET 3.559243 0.901887 0.402636
                CHANNELS 3 Zrotation Xrotation Yrotation
                End Site
                {
                  OFFSET 0 0 0
                }
              }
            }
          }
        }
      }
      JOINT ShoulderRight
      {
        OFFSET 15.088174 -2.886565 4.873038
        CHANNELS 3 Zrotation Xrotation Yrotation
        JOINT ElbowRight
        {
          OFFSET 1.215790 -27.062929 3.140815
          CHANNELS 3 Zrotation Xrotation Yrotation
          JOINT WristRight
          {
            OFFSET -0.436104 -21.613658 -5.508103
            CHANNELS 3 Zrotation Xrotation Yrotation
            JOINT HandRight
            {
              OFFSET -1.627837 -5.654056 -1.754103
              CHANNELS 3 Zrotation Xrotation Yrotation
              JOINT HandTipRight
              {
                OFFSET 0.058196 -3.869420 -1.659856
                CHANNELS 3 Zrotation Xrotation Yrotation
                End Site
                {
                  OFFSET 0 0 0
                }
              }
              JOINT ThumbRight
              {
                OFFSET 3.190276 -1.368301 -2.716261
                CHANNELS 3 Zrotation Xrotation Yrotation
                End Site
                {
                  OFFSET 0 0 0
                }
              }
            }
          }
        }
      }
    }
  }
  JOINT HipLeft
  {
    OFFSET -6.536897 1.041044 -5.652146
    CHANNELS 3 Zrotation Xrotation Yrotation
    JOINT KneeLeft
    {
      OFFSET -6.882245 -27.182404 -0.131799
      CHANNELS 3 Zrotation Xrotation Yrotation
      JOINT AnkleLeft
      {
        OFFSET -4.326919 -32.247960 4.809826
        CHANNELS 3 Zrotation Xrotation Yrotation
        JOINT FootLeft
        {
          OFFSET 4.196170 -3.683474 -12.409627
          CHANNELS 3 Zrotation Xrotation Yrotation
          End Site
          {
            OFFSET 0 0 0
          }
        }
      }
    }
  }
  JOINT HipRight
  {
    OFFSET 7.087135 0.599777 -1.012961
    CHANNELS 3 Zrotation Xrotation Yrotation
    JOINT KneeRight
    {
      OFFSET -6.293114 -29.068139 4.523482
      CHANNELS 3 Zrotation Xrotation Yrotation
      JOINT AnkleRight
      {
        OFFSET -5.905230 -31.921721 4.875974
        CHANNELS 3 Zrotation Xrotation Yrotation
        JOINT FootRight
        {
          OFFSET -0.733382 -7.518319 -6.516942
          CHANNELS 3 Zrotation Xrotation Yrotation
          End Site
          {
            OFFSET 0 0 0
          }
        }
      }
    }
  }
}
MOTION
Frames: 5
Frame Time: 0.033333
-33.108595 68.989358 349.351655 -0.000000 0.000000 -18.804469 -0.000000 0.000000 18.804469 -0.000000 0.000000 0.000000 -0.000000 0.000000 0.000000 0.000000 0.000000 0.000000 -0.000000 0.000000 0.000000 -0.000000 0.000000 0.000000 -0.000000 0.000000 0.000000 -0.000000 0.000000 0.000000 0.000000 0.000000 0.000000 0.000000 0.000000 0.000000 -0.000000 0.000000 0.000000 -0.000000 0.000000 0.000000 -0.000000 0.000000 0.000000 -0.000000 0.000000 0.000000 0.000000 0.000000 0.000000 0.000000 0.000000 0.000000 -0.000000 0.000000 18.804469 -0.000000 0.000000 0.000000 -0.000000 0.000000 0.000000 0.000000 0.000000 0.000000 -0.000000 0.000000 18.804469 -0.000000 0.000000 0.000000 -0.000000 0.000000 0.000000 0.000000 0.000000 0.000000
-33.153786 68.972280 349.356819 0.020638 -0.026134 -18.166621 -0.027758 0.018397 18.166630 -0.000000 0.000000 0.000000 -0.000000 0.000000 0.000000 0.000000 0.000000 0.000000 -0.000000 0.000000 0.000000 -1.247907 -0.723559 0.250380 0.791278 -1.886321 -0.835920 -1.984177 0.549114 0.561560 0.000000 0.000000 0.000000 0.000000 0.000000 0.000000 -0.000000 0.000000 0.000000 -0.000000 0.000000 0.000000 0.353298 -3.420709 0.895148 1.573177 -0.661809 -1.826852 0.000000 0.000000 0.000000 0.000000 0.000000 0.000000 -0.027758 0.018397 18.166630 -0.000000 0.000000 0.000000 -0.000000 0.000000 0.000000 0.000000 0.000000 0.000000 -0.027758 0.018397 18.166630 -0.000000 0.000000 0.000000 -0.000000 0.000000 0.000000 0.000000 0.000000 0.000000
-33.189803 68.954807 349.382108 0.039829 -0.063090 -17.820551 -0.057226 0.047874 17.820596 -0.000000 0.000000 0.000000 -0.000000 0.000000 0.000000 0.000000 0.000000 0.000000 -0.000000 0.000000 0.000000 -1.993409 -1.285874 0.370957 1.397753 -3.029699 -1.388418 -3.285353 0.902452 1.004419 0.000000 0.000000 0.000000 0.000000 0.000000 0.000000 -0.929044 -0.573616 -0.138214 1.402696 -0.471154 0.028919 0.334479 -4.607235 1.535476 2.558696 -1.046323 -3.097266 0.000000 0.000000 0.000000 0.000000 0.000000 0.000000 -0.057226 0.047874 17.820596 -0.000000 0.000000 0.000000 -0.000000 0.000000 0.000000 0.000000 0.000000 0.000000 -0.057226 0.047874 17.820596 -0.000000 0.000000 0.000000 -0.000000 0.000000 0.000000 0.000000 0.000000 0.000000
-33.216646 68.936938 349.427523 0.057556 -0.110853 -17.767980 -0.088639 0.088001 17.768104 -0.000000 0.000000 0.000000 -0.462849 0.742157 -0.132488 0.000000 0.000000 0.000000 0.306971 0.769988 -0.195958 -2.525655 -2.454325 0.531636 1.856442 -3.396340 -1.627440 -4.000227 0.988557 1.241706 0.000000 0.000000 0.000000 0.000000 0.000000 0.000000 -1.311725 -0.606083 -0.186388 2.063735 -0.824663 0.011302 0.576233 -5.425684 1.826518 3.143917 -1.243421 -3.865990 0.000000 0.000000 0.000000 0.000000 0.000000 0.000000 -0.088639 0.088001 17.768104 -0.000000 0.000000 0.000000 -0.000000 0.000000 0.000000 0.000000 0.000000 0.000000 -0.088639 0.088001 17.768104 -0.000000 0.000000 0.000000 -0.226758 -0.844999 0.279041 0.000000 0.000000 0.000000
-33.234315 68.918672 349.493065 0.073807 -0.169391 -18.010153 -0.122564 0.138271 18.010410 -0.000000 0.000000 0.000000 -1.142832 1.034700 -0.250049 0.000000 0.000000 0.000000 0.675780 1.258019 -0.348056 -2.599704 -3.163145 0.542800 2.192510 -2.946766 -1.540906 -4.182042 0.750933 1.228628 0.000000 0.000000 0.000000 0.000000 0.000000 0.000000 -1.639328 -0.469240 -0.218097 2.695494 -1.244752 -0.022498 0.854362 -5.412696 1.823269 3.431333 -1.316350 -4.173108 0.000000 0.000000 0.000000 0.000000 0.000000 0.000000 -0.923310 0.373918 17.898076 0.689598 -0.470293 0.118743 -0.000000 0.000000 0.000000 0.000000 0.000000 0.000000 -0.122564 0.138271 18.010410 -0.000000 0.000000 0.000000 -0.257466 -0.883144 0.309337 0.000000 0.000000 0.000000
